<?xml version="1.0" encoding="UTF-8" standalone="no"?>
<svg width="237px" height="67px" viewBox="0 0 237 67" version="1.1" xmlns="http://www.w3.org/2000/svg" xmlns:xlink="http://www.w3.org/1999/xlink">
    <!-- Generator: Sketch 39.1 (31720) - http://www.bohemiancoding.com/sketch -->
    <title>TENOR_VECTOR-2</title>
    <desc>Created with Sketch.</desc>
    <defs></defs>
    <g id="Page-1" stroke="none" stroke-width="1" fill="none" fill-rule="evenodd">
        <g id="Desktop-HD-Copy-2" transform="translate(-602.000000, -89.000000)" fill="#FFFFFF">
            <g id="TENOR_VECTOR-2" transform="translate(602.000000, 89.000000)">
                <path d="M46.9750773,44.1249376 C47.33321,46.8109331 48.1091643,49.2134069 49.4820065,51.3771255 C52.7052011,56.4655948 57.3907711,58.8829908 63.3894944,58.8382242 C68.3138195,58.8083798 72.5368014,57.0177161 76.1778175,53.7348327 C78.0878588,52.0038578 80.7738543,52.3321462 82.1168521,54.4063316 C83.0867949,55.8985513 82.8928064,57.7041372 81.5498086,59.047135 C77.4760487,63.1208949 72.6263346,65.6576684 66.8812886,66.3590117 C63.1208949,66.8215998 59.3754233,66.7320666 55.719485,65.5979796 C47.3928988,63.0164395 41.8567636,57.4952264 39.394601,49.1984847 C36.514617,39.4542898 38.0516033,30.396516 44.8412031,22.607129 C49.4521621,17.3395933 55.421041,14.8326642 62.449396,14.9520418 C68.5078081,15.0564971 73.790266,17.1157604 78.0430922,21.5178086 C81.579653,25.173747 83.5344609,29.635484 84.4297927,34.5896535 C84.7730032,36.4698504 84.9222252,38.3798916 85.0117584,40.2899329 C85.1162138,42.3939627 83.4747721,44.0354044 81.3707422,44.1398598 C81.0722983,44.154782 80.7738543,44.1398598 80.4754104,44.1398598 L48.0345533,44.1398598 C47.7361094,44.1249376 47.4227432,44.1249376 46.9750773,44.1249376 L46.9750773,44.1249376 L46.9750773,44.1249376 Z M76.1032066,36.6190723 C75.8793736,34.6791867 75.3272523,32.888523 74.5960646,31.1426259 C70.238783,20.8910763 58.9128352,20.6224768 53.0931782,25.6214129 C50.0341278,28.2477196 48.2285419,31.605214 47.33321,35.4849853 C47.2436769,35.8431181 47.2138325,36.2012508 47.1392215,36.6190723 L76.1032066,36.6190723 L76.1032066,36.6190723 L76.1032066,36.6190723 Z" id="Shape"></path>
                <path d="M144.805003,40.4839215 C144.819925,27.292699 155.041631,14.892353 170.680093,14.9221974 C185.25908,14.9371196 196.435806,26.233223 196.405962,40.9166652 C196.376117,55.34643 184.975559,66.5977668 170.366727,66.612689 C156.295095,66.612689 144.775159,54.8539975 144.805003,40.4839215 L144.805003,40.4839215 L144.805003,40.4839215 Z M187.572021,41.1703425 C187.49741,36.0520288 186.020112,31.7842804 182.781996,28.1731086 C176.171462,20.7866209 164.099404,21.0701427 157.757471,28.6804633 C152.475013,35.0223972 152.101958,46.2140452 158.234981,53.1081004 C163.696505,59.2560457 173.515311,60.5244325 180.200455,55.7493294 C185.288925,52.1083132 187.422799,46.9601551 187.572021,41.1703425 L187.572021,41.1703425 L187.572021,41.1703425 Z" id="Shape"></path>
                <path d="M101.993219,22.1743853 C102.933317,21.2790534 103.694349,20.5180214 104.485226,19.8017559 C108.305308,16.3099617 112.871501,14.8774308 117.95997,14.9221974 C121.974041,14.966964 125.749357,15.8622958 129.091929,18.1901586 C133.2403,21.0850649 135.493552,25.1886692 136.373962,30.0682277 C136.657483,31.6499806 136.806705,33.2765001 136.821628,34.8880974 C136.866394,44.0204822 136.83655,53.1379448 136.83655,62.2703296 C136.83655,64.0162267 135.732307,65.6725906 134.105788,66.2694785 C132.404657,66.8962108 130.807982,66.6425334 129.494829,65.3293801 C128.569652,64.419126 128.166753,63.2701168 128.166753,61.9569635 C128.181675,53.4960776 128.21152,45.0501138 128.136909,36.5892279 C128.121987,34.9179418 127.883231,33.2018891 127.480332,31.5902918 C126.211945,26.6510445 122.675385,23.6516828 117.61676,23.0697171 C114.02051,22.6518956 110.603327,23.2189391 107.603965,25.3975799 C103.619739,28.2924862 102.023063,32.4110127 102.008141,37.1861158 C101.978297,45.512702 102.008141,53.8542103 101.993219,62.1807964 C101.993219,65.3741467 98.8894019,67.4483321 95.9348069,66.2396341 C94.3679761,65.5979796 93.3085001,63.8968491 93.3085001,61.9868079 L93.3085001,48.7806632 L93.3085001,19.3093234 C93.3085001,17.6231151 94.0844544,16.3398061 95.5169853,15.5041631 C96.9942829,14.6386756 98.5312692,14.6834422 99.9787223,15.5936962 C101.217265,16.3845727 101.963375,17.5335819 101.993219,19.055646 C102.008141,20.0405111 101.993219,20.9955317 101.993219,22.1743853 L101.993219,22.1743853 L101.993219,22.1743853 Z" id="Shape"></path>
                <path d="M18.6378245,15.9369068 L19.6077673,15.9369068 L30.3517494,15.9369068 C31.9633468,15.9369068 33.2765001,16.4591837 34.1121432,17.9066368 C35.4999075,20.338955 34.0822988,23.2786279 31.3067701,23.6964494 C30.8740263,23.7561382 30.4114382,23.7710604 29.9637723,23.7710604 L19.5928451,23.7710604 L18.6378245,23.7710604 L18.6378245,24.6067035 L18.6378245,51.2428258 C18.6378245,53.0334894 18.9213463,54.7495421 20.1300442,56.2119175 C21.1149093,57.4056933 22.4429848,57.913048 23.890438,58.1368809 C26.0541566,58.4800915 28.202953,58.3010251 30.3069828,57.6444484 C32.3065573,57.0027939 34.2762873,57.8981258 34.9477862,59.7634004 C35.6342073,61.6585195 34.6642645,63.5237942 32.813912,64.419126 C30.3069828,65.6427462 27.6806761,66.1799453 24.9051474,66.3291673 C17.7126483,66.6873 11.2513368,61.4645309 10.1620164,54.3317206 C10.0127944,53.4065444 9.96802784,52.4515237 9.96802784,51.5114253 C9.95310564,42.6327179 9.95310564,33.7540104 9.95310564,24.875303 L9.95310564,23.8456714 C9.6248173,23.8307492 9.35621775,23.8009048 9.10254039,23.8009048 C7.46109868,23.8009048 5.81965697,23.8307492 4.17821526,23.7859826 C1.49221974,23.7113716 -0.238755158,21.696875 0.164144171,19.1601014 C0.447665921,17.3694377 2.07418543,16.02644 4.11852647,15.9667512 C5.73012379,15.9219846 7.3566433,15.951829 8.96824062,15.951829 C9.95310564,15.951829 9.95310564,15.951829 9.95310564,14.9221974 L9.95310564,4.5512702 C9.95310564,2.01449664 11.7885359,0.0746109868 14.2357763,0.0447665921 C16.6830167,0.0149221974 18.6079801,1.96973005 18.6229023,4.536348 C18.6378245,8.01321999 18.6229023,11.5050142 18.6229023,14.9818862 C18.6378245,15.2654079 18.6378245,15.5638519 18.6378245,15.9369068 L18.6378245,15.9369068 L18.6378245,15.9369068 Z" id="Shape"></path>
                <path d="M213.745555,25.3826577 C215.028864,23.9202824 216.162951,22.4728292 217.476104,21.1895203 C220.475466,18.2647696 223.997105,16.2204285 228.145476,15.3997077 C229.39894,15.1460303 230.712093,15.0863415 231.995402,15.1460303 C234.427721,15.2803301 236.248229,17.3097489 236.248229,19.6973005 C236.248229,22.0550077 234.397876,24.0545822 231.995402,24.2784151 C230.219661,24.4425593 228.414075,24.4724037 226.668178,24.8454586 C221.878153,25.8750902 218.490814,28.7699965 216.312173,33.112356 C214.402132,36.9025941 213.760477,40.9912762 213.745555,45.1844136 C213.715711,50.7802376 213.745555,56.3760616 213.745555,61.9718857 C213.745555,64.568348 211.835514,66.5828446 209.373351,66.5679224 C206.896266,66.5530002 205.030992,64.6280368 205.030992,62.0315744 L205.030992,19.2197902 C205.030992,17.2799045 206.403834,15.5190853 208.254186,15.0564971 C210.283605,14.5491424 212.253335,15.3847855 213.133745,17.2500602 C213.476956,17.9663256 213.670944,18.8019687 213.700788,19.6077673 C213.790322,21.2641312 213.730633,22.9354174 213.730633,24.6067035 C213.745555,24.8603808 213.745555,25.099136 213.745555,25.3826577 L213.745555,25.3826577 L213.745555,25.3826577 Z" id="Shape"></path>
            </g>
        </g>
    </g>
</svg>