<?xml version="1.0" encoding="UTF-8" standalone="no"?>
<svg width="40px" height="40px" viewBox="0 0 40 40" version="1.1" xmlns="http://www.w3.org/2000/svg" xmlns:xlink="http://www.w3.org/1999/xlink">
    <!-- Generator: Sketch 3.8.3 (29802) - http://www.bohemiancoding.com/sketch -->
    <title>Twitter</title>
    <desc>Created with Sketch.</desc>
    <defs></defs>
    <g id="signedOut" stroke="none" stroke-width="1" fill="none" fill-rule="evenodd">
        <g id="itemViewV2-Copy-3" transform="translate(-400.000000, -640.000000)">
            <g id="Twitter" transform="translate(400.000000, 640.000000)">
                <rect fill="#1DA1F2" x="0" y="0" width="40" height="40" rx="20"></rect>
                <path d="M26.4039468,15.0518519 C27.1446875,14.6074074 27.7150579,13.9037037 27.9817245,13.0666667 C27.2891319,13.4777778 26.5224653,13.7777778 25.7039468,13.937037 C25.0483912,13.237037 24.1150579,12.8 23.0854282,12.8 C21.1039468,12.8 19.5002431,14.4074074 19.5002431,16.3888889 C19.5002431,16.6703704 19.5298727,16.9444444 19.5928356,17.2074074 C16.6113542,17.0592593 13.9669097,15.6296296 12.2002431,13.4555556 C11.8928356,13.9851852 11.7150579,14.6037037 11.7150579,15.2592593 C11.7150579,16.5037037 12.3520949,17.6037037 13.3150579,18.2481481 C12.7224653,18.2333333 12.1669097,18.0703704 11.6854282,17.8 L11.6854282,17.8444444 C11.6854282,19.5851852 12.9224653,21.0333333 14.563206,21.362963 C14.263206,21.4444444 13.9446875,21.4888889 13.6187616,21.4888889 C13.3891319,21.4888889 13.163206,21.4666667 12.9446875,21.4222222 C13.4002431,22.8481481 14.726169,23.8851852 16.2965394,23.9148148 C15.0706134,24.8777778 13.5224653,25.4518519 11.8409838,25.4518519 C11.5520949,25.4518519 11.2669097,25.4333333 10.9854282,25.4 C12.5669097,26.4296296 14.4520949,27.0222222 16.4743171,27.0222222 C23.0780208,27.0222222 26.6854282,21.5518519 26.6854282,16.8074074 C26.6854282,16.6518519 26.6817245,16.4962963 26.6743171,16.3444444 C27.3743171,15.837037 27.9817245,15.2074074 28.463206,14.4851852 C27.8187616,14.7703704 27.1298727,14.962963 26.4039468,15.0518519 Z" id="Shape-Copy-2" fill="#FFFFFF"></path>
            </g>
        </g>
    </g>
</svg>